<svg width="24" height="24" viewBox="0 0 24 24" fill="none" xmlns="http://www.w3.org/2000/svg">
    <path d="M12 24C5.3832 24 0 18.6168 0 12C0 5.3832 5.3832 0 12 0C18.6168 0 24 5.3832 24 12C24 18.6168 18.6168 24 12 24ZM12 1.94328C6.45456 1.94328 1.94328 6.45456 1.94328 12C1.94328 17.5454 6.45456 22.0567 12 22.0567C17.5454 22.0567 22.0567 17.5454 22.0567 12C22.0567 6.45456 17.5454 1.94328 12 1.94328Z" fill="black" />
    <path d="M13.2 6H10.56V10.56H6V13.2H10.56V17.76H13.2V13.2H17.76V10.56H13.2" fill="black" />
</svg>