<svg width="24" height="24" viewBox="0 0 24 24" fill="none" xmlns="http://www.w3.org/2000/svg">
<path fill-rule="evenodd" clip-rule="evenodd" d="M21.306 4.01268L24 1.31868L22.6813 0L19.9873 2.69399C17.8771 1.20861 14.9421 1.40951 13.0549 3.29671L11.9161 4.43557C11.307 5.04468 11.307 6.03225 11.9161 6.64136L17.3586 12.0839C17.9678 12.693 18.9553 12.693 19.5644 12.0839L20.7033 10.9451C22.5905 9.05787 22.7914 6.12295 21.306 4.01268ZM3.29671 13.0549C1.40952 14.9421 1.20861 17.8771 2.694 19.9873L0 22.6813L1.31868 24L4.01268 21.306C6.12295 22.7914 9.05787 22.5905 10.9451 20.7033L12.0839 19.5644C12.693 18.9553 12.693 17.9678 12.0839 17.3586L11.8682 17.1429L14.7692 14.2418C15.2062 13.8048 15.2062 13.0964 14.7692 12.6594C14.3323 12.2224 13.6238 12.2224 13.1868 12.6594L10.2858 15.5605L8.70334 13.9781L11.6044 11.077C12.0414 10.64 12.0414 9.93156 11.6044 9.49459C11.1674 9.05761 10.4589 9.05761 10.022 9.49459L7.12092 12.3956L6.64137 11.9161C6.03225 11.307 5.04468 11.307 4.43557 11.9161L3.29671 13.0549Z" fill="white"/>
</svg>
