<svg xmlns="http://www.w3.org/2000/svg" width="24" height="25" viewBox="0 0 24 25" fill="none">
  <path d="M6 3.5V6.5H3V3.5H6ZM7.5 2H1.5V8H7.5V2ZM13.5 3.5V6.5H10.5V3.5H13.5ZM15 2H9V8H15V2ZM21 3.5V6.5H18V3.5H21ZM22.5 2H16.5V8H22.5V2ZM6 11V14H3V11H6ZM7.5 9.5H1.5V15.5H7.5V9.5ZM13.5 11V14H10.5V11H13.5ZM15 9.5H9V15.5H15V9.5ZM21 11V14H18V11H21ZM22.5 9.5H16.5V15.5H22.5V9.5ZM6 18.5V21.5H3V18.5H6ZM7.5 17H1.5V23H7.5V17ZM13.5 18.5V21.5H10.5V18.5H13.5ZM15 17H9V23H15V17ZM21 18.5V21.5H18V18.5H21ZM22.5 17H16.5V23H22.5V17Z" fill="#F9F9F9"/>
</svg>