<svg width="24" height="25" viewBox="0 0 24 25" fill="none" xmlns="http://www.w3.org/2000/svg">
  <path d="M15 5L15 20C15 20.3978 15.158 20.7794 15.4393 21.0607C15.7206 21.342 16.1022 21.5 16.5 21.5H19.5C19.8978 21.5 20.2794 21.342 20.5607 21.0607C20.842 20.7794 21 20.3978 21 20V5C21 4.60217 20.842 4.22064 20.5607 3.93934C20.2794 3.65804 19.8978 3.5 19.5 3.5H16.5C16.1022 3.5 15.7206 3.65804 15.4393 3.93934C15.158 4.22064 15 4.60217 15 5ZM19.5 5V20H16.5V5H19.5Z" fill="#F9F9F9"/>
  <path d="M5.871 11.75L7.8105 9.8105L6.75 8.75L3 12.5L6.75 16.25L7.8105 15.1895L5.871 13.25H10.5V21.5H12L12 3.5H10.5V11.75H5.871Z" fill="#F9F9F9"/>
</svg>
