<svg xmlns="http://www.w3.org/2000/svg" width="103" height="104" viewBox="0 0 103 104" fill="none">
  <g filter="url(#filter0_dd_6000_1842)">
    <path fill-rule="evenodd" clip-rule="evenodd" d="M29.5 28C28.3954 28 27.5 28.8954 27.5 30V74C27.5 75.1046 28.3954 76 29.5 76H73.5C74.6046 76 75.5 75.1046 75.5 74V30C75.5 28.8954 74.6046 28 73.5 28H29.5ZM46.1085 56.8187V53.3825L52.49 43.4534L54.8774 45.0822L49.2546 53.8734L49.5224 54.3197H54.632V48.5184H57.555V54.3197H59.5185V56.8187H57.555V60.1879H54.632V56.8187H46.1085ZM38.5396 60.5895C37.543 60.5895 36.6654 60.3813 35.9067 59.9648C35.1481 59.5334 34.5531 58.9087 34.1217 58.0905C34.0314 57.9193 33.9496 57.7406 33.8763 57.5544V60.1879H31.4219V43.8996H34.5233V50.0314C34.9586 49.2782 35.5239 48.7069 36.2191 48.3175C36.9629 47.901 37.8033 47.6928 38.7404 47.6928C39.5735 47.6928 40.3321 47.849 41.0163 48.1614C41.7006 48.4737 42.2882 48.9126 42.7791 49.4778C43.2699 50.0282 43.6418 50.6753 43.8947 51.419C44.1624 52.1628 44.2963 52.9735 44.2963 53.8511V54.3197C44.2963 55.1973 44.1624 56.0154 43.8947 56.7741C43.6269 57.5327 43.2402 58.2021 42.7344 58.7822C42.2287 59.3475 41.6188 59.7937 40.9048 60.121C40.2057 60.4334 39.4173 60.5895 38.5396 60.5895ZM37.8479 57.979C38.5173 57.979 39.0975 57.8153 39.5883 57.4881C40.0941 57.1459 40.4883 56.6848 40.7709 56.1047C41.0535 55.5246 41.1948 54.8552 41.1948 54.0965C41.1948 53.323 41.0535 52.6537 40.7709 52.0884C40.4883 51.5231 40.0941 51.0843 39.5883 50.7719C39.0975 50.4596 38.5173 50.3034 37.8479 50.3034C37.2381 50.3034 36.6728 50.4373 36.1522 50.705C35.6464 50.9728 35.2299 51.367 34.9027 51.8876C34.5903 52.4082 34.4341 53.033 34.4341 53.7618V54.6544C34.4341 55.3535 34.5977 55.9485 34.925 56.4394C35.2522 56.9303 35.6762 57.3096 36.1968 57.5773C36.7174 57.8451 37.2678 57.979 37.8479 57.979ZM69.1377 57.8547V60.1879H71.5921V52.6685C71.5921 51.538 71.3764 50.6232 70.945 49.9241C70.5285 49.2249 69.9038 48.7117 69.0708 48.3845C68.2526 48.0572 67.2188 47.8936 65.9693 47.8936C65.5677 47.8936 65.1363 47.901 64.6752 47.9159C64.2289 47.9159 63.7901 47.9308 63.3587 47.9605C62.9273 47.9903 62.5406 48.02 62.1984 48.0498V50.6827C62.615 50.6529 63.0835 50.6306 63.6041 50.6158C64.1397 50.586 64.6677 50.5637 65.1884 50.5488C65.709 50.5339 66.1552 50.5265 66.5271 50.5265C67.2411 50.5265 67.7692 50.6976 68.1113 51.0397C68.4534 51.3818 68.6245 51.9025 68.6245 52.6016V52.7132H66.1478C65.0768 52.7132 64.1397 52.8545 63.3364 53.1371C62.548 53.4197 61.9307 53.8437 61.4844 54.4089C61.0531 54.9742 60.8374 55.7031 60.8374 56.5956C60.8374 57.4137 61.0159 58.1128 61.3729 58.693C61.7448 59.2731 62.2579 59.7193 62.9124 60.0317C63.5818 60.3441 64.3553 60.5003 65.233 60.5003C66.0809 60.5003 66.7949 60.3515 67.375 60.054C67.97 59.7417 68.4311 59.2954 68.7584 58.7153C68.9117 58.4553 69.0382 58.1684 69.1377 57.8547ZM68.6245 55.7031V54.5651H66.1032C65.3892 54.5651 64.8388 54.7436 64.452 55.1006C64.0802 55.4427 63.8942 55.889 63.8942 56.4394C63.8942 56.9898 64.0802 57.436 64.452 57.7781C64.8388 58.1203 65.3892 58.2913 66.1032 58.2913C66.5346 58.2913 66.9287 58.217 67.2858 58.0682C67.6576 57.9046 67.9626 57.6368 68.2006 57.2649C68.4534 56.8782 68.5948 56.3576 68.6245 55.7031Z" fill="#F9F9F9"/>
  </g>
  <defs>
    <filter id="filter0_dd_6000_1842" x="0.0350208" y="0.535021" width="102.93" height="102.93" filterUnits="userSpaceOnUse" color-interpolation-filters="sRGB">
      <feFlood flood-opacity="0" result="BackgroundImageFix"/>
      <feColorMatrix in="SourceAlpha" type="matrix" values="0 0 0 0 0 0 0 0 0 0 0 0 0 0 0 0 0 0 127 0" result="hardAlpha"/>
      <feOffset/>
      <feGaussianBlur stdDeviation="13.7325"/>
      <feColorMatrix type="matrix" values="0 0 0 0 0.758333 0 0 0 0 0.885526 0 0 0 0 1 0 0 0 0.4 0"/>
      <feBlend mode="normal" in2="BackgroundImageFix" result="effect1_dropShadow_6000_1842"/>
      <feColorMatrix in="SourceAlpha" type="matrix" values="0 0 0 0 0 0 0 0 0 0 0 0 0 0 0 0 0 0 127 0" result="hardAlpha"/>
      <feOffset dy="2.1972"/>
      <feGaussianBlur stdDeviation="1.0986"/>
      <feComposite in2="hardAlpha" operator="out"/>
      <feColorMatrix type="matrix" values="0 0 0 0 0 0 0 0 0 0 0 0 0 0 0 0 0 0 0.25 0"/>
      <feBlend mode="normal" in2="effect1_dropShadow_6000_1842" result="effect2_dropShadow_6000_1842"/>
      <feBlend mode="normal" in="SourceGraphic" in2="effect2_dropShadow_6000_1842" result="shape"/>
    </filter>
  </defs>
</svg>