<svg xmlns="http://www.w3.org/2000/svg" width="24" height="24" viewBox="0 0 24 24" fill="none">
  <path d="M12.0015 4.62856H11.9985L3.48653 20.9975L3.48796 21H20.5121L20.5135 20.9975L12.0015 4.62856ZM11.1563 9.00001H12.8438V15.75H11.1563V9.00001ZM12 19.5C11.7775 19.5 11.56 19.434 11.375 19.3104C11.19 19.1868 11.0458 19.0111 10.9606 18.8055C10.8755 18.6 10.8532 18.3738 10.8966 18.1555C10.94 17.9373 11.0472 17.7369 11.2045 17.5795C11.3618 17.4222 11.5623 17.315 11.7805 17.2716C11.9988 17.2282 12.225 17.2505 12.4305 17.3356C12.6361 17.4208 12.8118 17.565 12.9354 17.75C13.059 17.935 13.125 18.1525 13.125 18.375C13.125 18.6734 13.0065 18.9595 12.7955 19.1705C12.5845 19.3815 12.2984 19.5 12 19.5Z" fill="#CCCCCC"/>
  <path d="M21.75 22.5H2.25001C2.12115 22.5 1.99447 22.4668 1.88218 22.4036C1.76988 22.3404 1.67576 22.2494 1.60889 22.1392C1.54203 22.0291 1.50466 21.9036 1.50041 21.7748C1.49615 21.646 1.52515 21.5183 1.58461 21.404L11.3346 2.65396C11.3979 2.53219 11.4935 2.43013 11.6108 2.3589C11.7281 2.28767 11.8627 2.25 12 2.25C12.1373 2.25 12.2719 2.28767 12.3892 2.3589C12.5065 2.43013 12.6021 2.53219 12.6654 2.65396L22.4154 21.404C22.4749 21.5183 22.5039 21.646 22.4996 21.7748C22.4953 21.9036 22.458 22.0291 22.3911 22.1392C22.3242 22.2494 22.2301 22.3404 22.1178 22.4036C22.0055 22.4668 21.8789 22.5 21.75 22.5ZM3.48796 21H20.5121L20.5135 20.9975L12.0015 4.62856H11.9985L3.48653 20.9975L3.48796 21Z" fill="#CCCCCC"/>
</svg>