<svg width="11" height="11" viewBox="0 0 11 11" fill="none" xmlns="http://www.w3.org/2000/svg">
<path d="M11 5.5C11 6.5878 10.6774 7.65117 10.0731 8.55564C9.46873 9.46011 8.60975 10.1651 7.60476 10.5813C6.59977 10.9976 5.4939 11.1065 4.427 10.8943C3.36011 10.6821 2.3801 10.1583 1.61091 9.38909C0.841724 8.6199 0.3179 7.63989 0.105681 6.573C-0.106538 5.5061 0.0023806 4.40023 0.418663 3.39524C0.834945 2.39025 1.53989 1.53126 2.44436 0.926917C3.34883 0.322569 4.4122 -1.29719e-08 5.5 0V1.375C4.68415 1.375 3.88663 1.61693 3.20827 2.07019C2.52992 2.52345 2.00121 3.16769 1.689 3.92143C1.37679 4.67518 1.2951 5.50458 1.45426 6.30475C1.61342 7.10492 2.00629 7.83992 2.58318 8.41682C3.16008 8.99371 3.89508 9.38658 4.69525 9.54574C5.49542 9.7049 6.32482 9.62321 7.07857 9.311C7.83231 8.99879 8.47655 8.47008 8.92981 7.79173C9.38307 7.11337 9.625 6.31585 9.625 5.5H11Z" fill="#15A9FF"/>
</svg>
