<svg xmlns="http://www.w3.org/2000/svg" width="24" height="25" viewBox="0 0 24 25" fill="none">
  <path d="M20.25 13.0701C20.25 12.8826 20.25 12.6951 20.25 12.5001C20.25 12.3051 20.25 12.1176 20.25 11.9226L21.69 10.6626C21.9555 10.4286 22.1296 10.1083 22.1818 9.75836C22.2339 9.40839 22.1607 9.05125 21.975 8.75006L20.205 5.75006C20.0735 5.52226 19.8844 5.33305 19.6566 5.20141C19.4289 5.06977 19.1705 5.00033 18.9075 5.00006C18.7445 4.99881 18.5824 5.02414 18.4275 5.07506L16.605 5.69006C16.2904 5.48097 15.9621 5.29305 15.6225 5.12756L15.24 3.23756C15.1714 2.89226 14.9836 2.58209 14.7093 2.36134C14.4351 2.14058 14.092 2.02332 13.74 2.03006H10.23C9.87803 2.02332 9.53489 2.14058 9.26067 2.36134C8.98644 2.58209 8.79859 2.89226 8.73001 3.23756L8.34751 5.12756C8.00546 5.29301 7.67473 5.48092 7.35751 5.69006L5.57251 5.04506C5.41598 5.00428 5.25389 4.98908 5.09251 5.00006C4.82946 5.00033 4.57111 5.06977 4.34338 5.20141C4.11564 5.33305 3.92653 5.52226 3.79501 5.75006L2.02501 8.75006C1.84995 9.0508 1.7849 9.40305 1.84099 9.74648C1.89709 10.0899 2.07085 10.4032 2.33251 10.6326L3.75001 11.9301C3.75001 12.1176 3.75001 12.3051 3.75001 12.5001C3.75001 12.6951 3.75001 12.8826 3.75001 13.0776L2.33251 14.3376C2.06346 14.5686 1.88495 14.8874 1.82866 15.2375C1.77236 15.5876 1.84193 15.9464 2.02501 16.2501L3.79501 19.2501C3.92653 19.4779 4.11564 19.6671 4.34338 19.7987C4.57111 19.9304 4.82946 19.9998 5.09251 20.0001C5.25552 20.0013 5.41765 19.976 5.57251 19.9251L7.39501 19.3101C7.70966 19.5192 8.03789 19.7071 8.37751 19.8726L8.76001 21.7626C8.82859 22.1079 9.01644 22.418 9.29067 22.6388C9.56489 22.8595 9.90803 22.9768 10.26 22.9701H13.8C14.152 22.9768 14.4951 22.8595 14.7693 22.6388C15.0436 22.418 15.2314 22.1079 15.3 21.7626L15.6825 19.8726C16.0246 19.7071 16.3553 19.5192 16.6725 19.3101L18.4875 19.9251C18.6424 19.976 18.8045 20.0013 18.9675 20.0001C19.2306 19.9998 19.4889 19.9304 19.7166 19.7987C19.9444 19.6671 20.1335 19.4779 20.265 19.2501L21.975 16.2501C22.1501 15.9493 22.2151 15.5971 22.159 15.2536C22.1029 14.9102 21.9292 14.597 21.6675 14.3676L20.25 13.0701ZM18.9075 18.5001L16.335 17.6301C15.7328 18.1401 15.0446 18.5389 14.3025 18.8076L13.77 21.5001H10.23L9.69751 18.8376C8.96132 18.5612 8.27679 18.1632 7.67251 17.6601L5.09251 18.5001L3.32251 15.5001L5.36251 13.7001C5.22383 12.9237 5.22383 12.1289 5.36251 11.3526L3.32251 9.50006L5.09251 6.50006L7.66501 7.37006C8.26721 6.85998 8.95546 6.46125 9.69751 6.19256L10.23 3.50006H13.77L14.3025 6.16256C15.0387 6.43888 15.7232 6.83692 16.3275 7.34006L18.9075 6.50006L20.6775 9.50006L18.6375 11.3001C18.7762 12.0764 18.7762 12.8712 18.6375 13.6476L20.6775 15.5001L18.9075 18.5001Z" fill="#C1E2FF"/>
  <path d="M12 17.0001C11.11 17.0001 10.24 16.7361 9.49994 16.2417C8.75992 15.7472 8.18314 15.0444 7.84255 14.2221C7.50196 13.3999 7.41284 12.4951 7.58647 11.6222C7.76011 10.7492 8.18869 9.94742 8.81803 9.31808C9.44736 8.68875 10.2492 8.26016 11.1221 8.08653C11.995 7.91289 12.8998 8.00201 13.7221 8.3426C14.5444 8.6832 15.2472 9.25997 15.7416 10C16.2361 10.74 16.5 11.61 16.5 12.5001C16.506 13.0927 16.3937 13.6805 16.1697 14.2292C15.9457 14.7779 15.6145 15.2764 15.1954 15.6955C14.7763 16.1145 14.2779 16.4458 13.7292 16.6698C13.1805 16.8938 12.5926 17.0061 12 17.0001ZM12 9.50006C11.6035 9.49083 11.2093 9.56211 10.8411 9.7096C10.473 9.8571 10.1386 10.0777 9.85812 10.3582C9.57768 10.6386 9.35704 10.973 9.20955 11.3412C9.06206 11.7093 8.99077 12.1036 9.00001 12.5001C8.99077 12.8966 9.06206 13.2908 9.20955 13.6589C9.35704 14.0271 9.57768 14.3615 9.85812 14.6419C10.1386 14.9224 10.473 15.143 10.8411 15.2905C11.2093 15.438 11.6035 15.5093 12 15.5001C12.3965 15.5093 12.7907 15.438 13.1589 15.2905C13.527 15.143 13.8615 14.9224 14.1419 14.6419C14.4223 14.3615 14.643 14.0271 14.7905 13.6589C14.938 13.2908 15.0092 12.8966 15 12.5001C15.0092 12.1036 14.938 11.7093 14.7905 11.3412C14.643 10.973 14.4223 10.6386 14.1419 10.3582C13.8615 10.0777 13.527 9.8571 13.1589 9.7096C12.7907 9.56211 12.3965 9.49083 12 9.50006Z" fill="#C1E2FF"/>
</svg>