<svg xmlns="http://www.w3.org/2000/svg" width="24" height="25" viewBox="0 0 24 25" fill="none">
  <path d="M19.5 17C18.9703 17.0026 18.4515 17.1505 18 17.4275L15.6825 15.1025C16.2218 14.3418 16.5114 13.4324 16.5114 12.5C16.5114 11.5676 16.2218 10.6582 15.6825 9.8975L18 7.5725C18.4515 7.84955 18.9703 7.99741 19.5 8C20.0933 8 20.6734 7.82405 21.1667 7.49441C21.6601 7.16477 22.0446 6.69623 22.2716 6.14805C22.4987 5.59987 22.5581 4.99667 22.4424 4.41473C22.3266 3.83279 22.0409 3.29824 21.6213 2.87868C21.2018 2.45912 20.6672 2.1734 20.0853 2.05765C19.5033 1.94189 18.9001 2.0013 18.3519 2.22836C17.8038 2.45543 17.3352 2.83994 17.0056 3.33329C16.6759 3.82664 16.5 4.40666 16.5 5C16.5026 5.5297 16.6505 6.04853 16.9275 6.5L14.6025 8.8175C13.8418 8.27825 12.9324 7.9886 12 7.9886C11.0676 7.9886 10.1582 8.27825 9.3975 8.8175L7.0725 6.5C7.34955 6.04853 7.49741 5.5297 7.5 5C7.5 4.40666 7.32405 3.82664 6.99441 3.33329C6.66477 2.83994 6.19623 2.45543 5.64805 2.22836C5.09987 2.0013 4.49667 1.94189 3.91473 2.05765C3.33279 2.1734 2.79824 2.45912 2.37868 2.87868C1.95912 3.29824 1.6734 3.83279 1.55765 4.41473C1.44189 4.99667 1.5013 5.59987 1.72836 6.14805C1.95543 6.69623 2.33994 7.16477 2.83329 7.49441C3.32664 7.82405 3.90666 8 4.5 8C5.0297 7.99741 5.54853 7.84955 6 7.5725L8.3175 9.8975C7.77825 10.6582 7.4886 11.5676 7.4886 12.5C7.4886 13.4324 7.77825 14.3418 8.3175 15.1025L6 17.4275C5.54853 17.1505 5.0297 17.0026 4.5 17C3.90666 17 3.32664 17.1759 2.83329 17.5056C2.33994 17.8352 1.95543 18.3038 1.72836 18.8519C1.5013 19.4001 1.44189 20.0033 1.55765 20.5853C1.6734 21.1672 1.95912 21.7018 2.37868 22.1213C2.79824 22.5409 3.33279 22.8266 3.91473 22.9424C4.49667 23.0581 5.09987 22.9987 5.64805 22.7716C6.19623 22.5446 6.66477 22.1601 6.99441 21.6667C7.32405 21.1734 7.5 20.5933 7.5 20C7.49741 19.4703 7.34955 18.9515 7.0725 18.5L9.3975 16.1825C10.1582 16.7218 11.0676 17.0114 12 17.0114C12.9324 17.0114 13.8418 16.7218 14.6025 16.1825L16.9275 18.5C16.6505 18.9515 16.5026 19.4703 16.5 20C16.5 20.5933 16.6759 21.1734 17.0056 21.6667C17.3352 22.1601 17.8038 22.5446 18.3519 22.7716C18.9001 22.9987 19.5033 23.0581 20.0853 22.9424C20.6672 22.8266 21.2018 22.5409 21.6213 22.1213C22.0409 21.7018 22.3266 21.1672 22.4424 20.5853C22.5581 20.0033 22.4987 19.4001 22.2716 18.8519C22.0446 18.3038 21.6601 17.8352 21.1667 17.5056C20.6734 17.1759 20.0933 17 19.5 17ZM19.5 3.5C19.7967 3.5 20.0867 3.58797 20.3334 3.7528C20.58 3.91762 20.7723 4.15189 20.8858 4.42598C20.9994 4.70006 21.0291 5.00167 20.9712 5.29264C20.9133 5.58361 20.7704 5.85088 20.5607 6.06066C20.3509 6.27044 20.0836 6.4133 19.7926 6.47118C19.5017 6.52906 19.2001 6.49935 18.926 6.38582C18.6519 6.27229 18.4176 6.08003 18.2528 5.83336C18.088 5.58668 18 5.29667 18 5C18 4.60218 18.158 4.22065 18.4393 3.93934C18.7206 3.65804 19.1022 3.5 19.5 3.5ZM3 5C3 4.70333 3.08797 4.41332 3.2528 4.16665C3.41762 3.91997 3.65189 3.72771 3.92598 3.61418C4.20006 3.50065 4.50167 3.47095 4.79264 3.52882C5.08361 3.5867 5.35088 3.72956 5.56066 3.93934C5.77044 4.14912 5.9133 4.41639 5.97118 4.70737C6.02906 4.99834 5.99935 5.29994 5.88582 5.57403C5.77229 5.84812 5.58003 6.08238 5.33336 6.24721C5.08668 6.41203 4.79667 6.5 4.5 6.5C4.10218 6.5 3.72065 6.34197 3.43934 6.06066C3.15804 5.77936 3 5.39783 3 5ZM4.5 21.5C4.20333 21.5 3.91332 21.412 3.66665 21.2472C3.41997 21.0824 3.22771 20.8481 3.11418 20.574C3.00065 20.2999 2.97095 19.9983 3.02882 19.7074C3.0867 19.4164 3.22956 19.1491 3.43934 18.9393C3.64912 18.7296 3.91639 18.5867 4.20737 18.5288C4.49834 18.4709 4.79994 18.5006 5.07403 18.6142C5.34812 18.7277 5.58238 18.92 5.74721 19.1666C5.91203 19.4133 6 19.7033 6 20C6 20.3978 5.84197 20.7794 5.56066 21.0607C5.27936 21.342 4.89783 21.5 4.5 21.5ZM12 15.5C11.4067 15.5 10.8266 15.3241 10.3333 14.9944C9.83994 14.6648 9.45542 14.1962 9.22836 13.6481C9.0013 13.0999 8.94189 12.4967 9.05764 11.9147C9.1734 11.3328 9.45912 10.7982 9.87868 10.3787C10.2982 9.95912 10.8328 9.6734 11.4147 9.55764C11.9967 9.44189 12.5999 9.5013 13.1481 9.72836C13.6962 9.95542 14.1648 10.3399 14.4944 10.8333C14.8241 11.3266 15 11.9067 15 12.5C15 13.2957 14.6839 14.0587 14.1213 14.6213C13.5587 15.1839 12.7957 15.5 12 15.5ZM19.5 21.5C19.2033 21.5 18.9133 21.412 18.6666 21.2472C18.42 21.0824 18.2277 20.8481 18.1142 20.574C18.0006 20.2999 17.9709 19.9983 18.0288 19.7074C18.0867 19.4164 18.2296 19.1491 18.4393 18.9393C18.6491 18.7296 18.9164 18.5867 19.2074 18.5288C19.4983 18.4709 19.7999 18.5006 20.074 18.6142C20.3481 18.7277 20.5824 18.92 20.7472 19.1666C20.912 19.4133 21 19.7033 21 20C21 20.3978 20.842 20.7794 20.5607 21.0607C20.2794 21.342 19.8978 21.5 19.5 21.5Z" fill="url(#paint0_linear_6034_1559)"/>
  <defs>
    <linearGradient id="paint0_linear_6034_1559" x1="1.5" y1="23" x2="22.5" y2="23" gradientUnits="userSpaceOnUse">
      <stop stop-color="#208AEC"/>
      <stop offset="1" stop-color="#27AE60"/>
    </linearGradient>
  </defs>
</svg>