<svg width="24" height="24" viewBox="0 0 24 24" fill="none" xmlns="http://www.w3.org/2000/svg">
  <path d="M23.2049 11.745C22.3228 9.46324 20.7914 7.48996 18.8 6.06906C16.8086 4.64817 14.4445 3.84193 11.9999 3.75C9.55531 3.84193 7.19122 4.64817 5.19983 6.06906C3.20844 7.48996 1.67705 9.46324 0.794925 11.745C0.73535 11.9098 0.73535 12.0902 0.794925 12.255C1.67705 14.5368 3.20844 16.51 5.19983 17.9309C7.19122 19.3518 9.55531 20.1581 11.9999 20.25C14.4445 20.1581 16.8086 19.3518 18.8 17.9309C20.7914 16.51 22.3228 14.5368 23.2049 12.255C23.2645 12.0902 23.2645 11.9098 23.2049 11.745ZM11.9999 18.75C8.02493 18.75 3.82493 15.8025 2.30243 12C3.82493 8.1975 8.02493 5.25 11.9999 5.25C15.9749 5.25 20.1749 8.1975 21.6974 12C20.1749 15.8025 15.9749 18.75 11.9999 18.75Z" fill="#F9F9F9"/>
  <path d="M11.9999 7.5C11.1099 7.5 10.2399 7.76392 9.49986 8.25839C8.75984 8.75285 8.18306 9.45566 7.84247 10.2779C7.50187 11.1002 7.41276 12.005 7.58639 12.8779C7.76003 13.7508 8.18861 14.5526 8.81795 15.182C9.44728 15.8113 10.2491 16.2399 11.122 16.4135C11.9949 16.5872 12.8997 16.4981 13.722 16.1575C14.5443 15.8169 15.2471 15.2401 15.7415 14.5001C16.236 13.76 16.4999 12.89 16.4999 12C16.4999 10.8065 16.0258 9.66193 15.1819 8.81802C14.338 7.97411 13.1934 7.5 11.9999 7.5ZM11.9999 15C11.4066 15 10.8266 14.8241 10.3332 14.4944C9.83987 14.1648 9.45535 13.6962 9.22829 13.1481C9.00122 12.5999 8.94181 11.9967 9.05757 11.4147C9.17333 10.8328 9.45905 10.2982 9.87861 9.87868C10.2982 9.45912 10.8327 9.1734 11.4147 9.05764C11.9966 8.94189 12.5998 9.0013 13.148 9.22836C13.6962 9.45542 14.1647 9.83994 14.4943 10.3333C14.824 10.8266 14.9999 11.4067 14.9999 12C14.9999 12.7956 14.6839 13.5587 14.1212 14.1213C13.5586 14.6839 12.7956 15 11.9999 15Z" fill="#F9F9F9"/>
</svg>
