<svg xmlns="http://www.w3.org/2000/svg" width="24" height="25" viewBox="0 0 24 25" fill="none">
  <path d="M6 14C6.82843 14 7.5 13.3284 7.5 12.5C7.5 11.6716 6.82843 11 6 11C5.17157 11 4.5 11.6716 4.5 12.5C4.5 13.3284 5.17157 14 6 14Z" fill="#C1E2FF"/>
  <path d="M12 14C12.8284 14 13.5 13.3284 13.5 12.5C13.5 11.6716 12.8284 11 12 11C11.1716 11 10.5 11.6716 10.5 12.5C10.5 13.3284 11.1716 14 12 14Z" fill="#C1E2FF"/>
  <path d="M18 14C18.8284 14 19.5 13.3284 19.5 12.5C19.5 11.6716 18.8284 11 18 11C17.1716 11 16.5 11.6716 16.5 12.5C16.5 13.3284 17.1716 14 18 14Z" fill="#C1E2FF"/>
</svg>