<svg xmlns="http://www.w3.org/2000/svg" width="24" height="25" viewBox="0 0 24 25" fill="none">
  <g clip-path="url(#clip0_6034_433)">
    <path d="M19.3663 8.09297C19.0391 6.37896 18.1245 4.8327 16.7799 3.72051C15.4353 2.60832 13.745 1.99982 12 1.99982C10.2551 1.99982 8.56472 2.60832 7.22013 3.72051C5.87555 4.8327 4.96089 6.37896 4.6337 8.09297C3.25015 8.3401 2.00933 9.09646 1.15574 10.213C0.302144 11.3295 -0.102309 12.7253 0.0220721 14.1252C0.146453 15.5252 0.790649 16.8278 1.82772 17.7763C2.86479 18.7249 4.21953 19.2506 5.62498 19.25H5.99998V17.75H5.62498C4.55577 17.7507 3.52813 17.3359 2.75899 16.5931C1.98984 15.8504 1.53939 14.8379 1.5027 13.7693C1.46602 12.7007 1.84599 11.6597 2.56239 10.866C3.27879 10.0723 4.27556 9.58799 5.3423 9.51535L5.9696 9.47252L6.0371 8.8474C6.19754 7.37798 6.89489 6.01954 7.99536 5.03268C9.09583 4.04582 10.5219 3.50003 12.0001 3.50003C13.4782 3.50003 14.9043 4.04582 16.0048 5.03268C17.1053 6.01954 17.8026 7.37798 17.9631 8.8474L18.0306 9.47252L18.6579 9.51535C19.7246 9.58799 20.7214 10.0723 21.4378 10.866C22.1542 11.6598 22.5342 12.7008 22.4975 13.7694C22.4608 14.838 22.0103 15.8506 21.2411 16.5933C20.4719 17.336 19.4442 17.7507 18.375 17.75H18V19.25H18.375C19.7804 19.2507 21.1352 18.7249 22.1723 17.7764C23.2094 16.8278 23.8536 15.5252 23.978 14.1253C24.1023 12.7253 23.6979 11.3296 22.8443 10.213C21.9907 9.09647 20.7499 8.3401 19.3663 8.09297Z" fill="url(#paint0_linear_6034_433)"/>
    <path d="M17.25 17V15.5H15.6742C15.5774 15.0305 15.3911 14.5841 15.1252 14.1853L16.2427 13.0678L15.1822 12.0073L14.0647 13.1248C13.6659 12.8589 13.2195 12.6725 12.75 12.5758V11H11.25V12.5758C10.7805 12.6725 10.3341 12.8589 9.9353 13.1247L8.8178 12.0072L7.7573 13.0677L8.8748 14.1852C8.60893 14.5841 8.42253 15.0305 8.3258 15.5H6.74998V17H8.3258C8.42251 17.4694 8.60889 17.9158 8.87473 18.3146L7.75723 19.4321L8.81773 20.4926L9.93523 19.3751C10.3341 19.641 10.7805 19.8274 11.25 19.9241V21.5H12.75V19.9241C13.2194 19.8274 13.6658 19.6411 14.0647 19.3752L15.1822 20.4927L16.2427 19.4322L15.1252 18.3147C15.391 17.9159 15.5774 17.4695 15.6742 17H17.25ZM12 18.5C11.555 18.5 11.12 18.368 10.7499 18.1208C10.3799 17.8735 10.0915 17.5221 9.92125 17.111C9.75095 16.6999 9.7064 16.2475 9.79321 15.811C9.88003 15.3746 10.0943 14.9736 10.409 14.659C10.7237 14.3443 11.1246 14.13 11.561 14.0432C11.9975 13.9564 12.4499 14.0009 12.861 14.1712C13.2722 14.3415 13.6236 14.6299 13.8708 14.9999C14.118 15.3699 14.25 15.805 14.25 16.25C14.2493 16.8465 14.0121 17.4184 13.5902 17.8402C13.1684 18.2621 12.5965 18.4993 12 18.5Z" fill="url(#paint1_linear_6034_433)"/>
  </g>
  <defs>
    <linearGradient id="paint0_linear_6034_433" x1="0" y1="21.5" x2="24" y2="21.5" gradientUnits="userSpaceOnUse">
      <stop stop-color="#208AEC"/>
      <stop offset="1" stop-color="#27AE60"/>
    </linearGradient>
    <linearGradient id="paint1_linear_6034_433" x1="0" y1="21.5" x2="24" y2="21.5" gradientUnits="userSpaceOnUse">
      <stop stop-color="#208AEC"/>
      <stop offset="1" stop-color="#27AE60"/>
    </linearGradient>
    <clipPath id="clip0_6034_433">
      <rect width="24" height="24" fill="white" transform="translate(0 0.5)"/>
    </clipPath>
  </defs>
</svg>