<svg width="24" height="24" viewBox="0 0 24 24" fill="none" xmlns="http://www.w3.org/2000/svg">
<path d="M12 0C5.34375 0 0 5.39062 0 12C0 18.6562 5.34375 24 12 24C18.6094 24 24 18.6562 24 12C24 5.39062 18.6094 0 12 0ZM16.9688 16.1719C17.3438 16.6406 17.2969 17.3438 16.8281 17.7656C16.6406 17.9531 16.3594 18 16.125 18C15.7969 18 15.4688 17.9062 15.2344 17.625L12 13.7812L8.71875 17.625C8.48438 17.9062 8.15625 18 7.82812 18C7.59375 18 7.35938 17.9531 7.125 17.7656C6.65625 17.3438 6.60938 16.6406 6.98438 16.1719L10.5 12L6.98438 7.875C6.60938 7.40625 6.65625 6.70312 7.125 6.28125C7.59375 5.90625 8.29688 5.95312 8.71875 6.42188L12 10.2656L15.2344 6.42188C15.6562 5.95312 16.3594 5.90625 16.8281 6.28125C17.2969 6.70312 17.3438 7.40625 16.9688 7.875L13.4531 12L16.9688 16.1719Z" fill="#E85C3E"/>
</svg>
