<svg width="33" height="23" viewBox="0 0 33 23" fill="none" xmlns="http://www.w3.org/2000/svg">
<path fill-rule="evenodd" clip-rule="evenodd" d="M28.05 8.21423C28.05 8.84058 27.9314 9.44128 27.72 9.9906C30.7313 10.5964 33 13.2506 33 16.4286C33 20.0582 30.0455 23 26.4 23H7.425C3.32578 23 0 19.6886 0 15.6072C0 12.3831 2.07281 9.64148 4.96031 8.63013C4.95515 8.49158 4.95 8.35291 4.95 8.21423C4.95 3.6759 8.64188 0 13.2 0C16.2577 0 18.9234 1.65308 20.3517 4.11743C21.1355 3.59375 22.0842 3.28577 23.1 3.28577C25.8328 3.28577 28.05 5.49329 28.05 8.21423ZM15.4668 20.4205C15.4068 20.6189 15.3119 20.765 15.182 20.859C15.0521 20.953 14.9072 21 14.7473 21C14.5475 21 14.3676 20.9269 14.2078 20.7808C14.0579 20.645 13.9829 20.4675 13.9829 20.2482C13.9829 20.1542 13.9979 20.0602 14.0279 19.9663L17.5052 8.57947C17.5652 8.3811 17.6601 8.23499 17.79 8.14099C17.9199 8.047 18.0648 8 18.2247 8C18.4245 8 18.5994 8.07312 18.7492 8.21924C18.9091 8.35498 18.9891 8.53247 18.9891 8.75183C18.9891 8.84583 18.9741 8.93982 18.9441 9.03369L15.4668 20.4205ZM12.9396 17.7266C13.1894 17.8413 13.3143 18.0345 13.3143 18.306C13.3143 18.5149 13.2444 18.6871 13.1045 18.8229C12.9746 18.9482 12.8097 19.0109 12.6099 19.0109C12.5212 19.0109 12.4386 19.0004 12.362 18.9794C12.3177 18.9673 12.2754 18.9517 12.2352 18.9325L6.67448 16.4579C6.46465 16.3639 6.29977 16.2281 6.17986 16.0507C6.05995 15.8627 6 15.6486 6 15.4084C6 15.1787 6.05995 14.9698 6.17986 14.782C6.29977 14.594 6.46465 14.4583 6.67448 14.3748L12.2352 11.8843C12.3651 11.8322 12.49 11.806 12.6099 11.806C12.8097 11.806 12.9746 11.8739 13.1045 12.0096C13.2444 12.1349 13.3143 12.302 13.3143 12.5109C13.3143 12.7823 13.1894 12.9755 12.9396 13.0903L7.64873 15.4084L12.9396 17.7266ZM26.8201 14.782C26.7002 14.594 26.5354 14.4583 26.3255 14.3748L20.7648 11.8843C20.6802 11.8503 20.5977 11.8274 20.5173 11.8156C20.4743 11.8092 20.4319 11.806 20.3901 11.806C20.1903 11.806 20.0204 11.8739 19.8805 12.0096C19.7506 12.1349 19.6857 12.302 19.6857 12.5109C19.6857 12.7823 19.8106 12.9755 20.0604 13.0903L25.3513 15.4084L20.0604 17.7266C19.8106 17.8413 19.6857 18.0345 19.6857 18.306C19.6857 18.5149 19.7506 18.6871 19.8805 18.8229C20.0204 18.9482 20.1903 19.0109 20.3901 19.0109C20.53 19.0109 20.6549 18.9847 20.7648 18.9325L26.3255 16.4579C26.5354 16.3639 26.7002 16.2281 26.8201 16.0507C26.94 15.8627 27 15.6486 27 15.4084C27 15.1787 26.94 14.9698 26.8201 14.782Z" fill="white"/>
</svg>
