<svg xmlns="http://www.w3.org/2000/svg" width="22.373" height="22.356" viewBox="0 0 22.373 22.356"><path d="M14.369,21.04V19.188a7.681,7.681,0,0,0,4,.876,7.685,7.685,0,0,0,4-.876V21.04c0,.724-1.8,1.316-4,1.316S14.369,21.764,14.369,21.04ZM0,21.04V19.188a7.684,7.684,0,0,0,4,.876,7.683,7.683,0,0,0,4-.876V21.04c0,.724-1.791,1.316-4,1.316S0,21.764,0,21.04Zm14.371-2.881V16.306a7.673,7.673,0,0,0,4,.876,7.677,7.677,0,0,0,4-.876v1.853c0,.724-1.8,1.316-4,1.316S14.369,18.883,14.369,18.159ZM0,18.159V16.306a7.675,7.675,0,0,0,4,.876,7.674,7.674,0,0,0,4-.876v1.853c0,.724-1.791,1.316-4,1.316S0,18.883,0,18.159Zm14.371-2.881v-.32L12.21,13.7a1.295,1.295,0,0,1-2.032-.011L8,14.958v.32C8,16,6.209,16.594,4,16.594S0,16,0,15.278v-.825c0-.727,1.795-1.316,4-1.316,2.114,0,3.842.537,3.989,1.221L9.943,13.22a1.326,1.326,0,0,1-.046-.348,1.311,1.311,0,0,1,1.042-1.287V9.217C8.9,9.158,7.293,8.592,7.293,7.9V6.053a7.667,7.667,0,0,0,4,.875,7.667,7.667,0,0,0,4-.875V7.9c0,.708-1.7,1.287-3.832,1.316v2.365A1.311,1.311,0,0,1,12.5,12.873a1.325,1.325,0,0,1-.05.362l1.93,1.124c.146-.684,1.875-1.221,3.988-1.221,2.207,0,4,.589,4,1.316v.825c0,.724-1.8,1.316-4,1.316S14.369,16,14.369,15.278ZM7.293,5.023V3.171a7.667,7.667,0,0,0,4,.875,7.667,7.667,0,0,0,4-.875V5.023c0,.725-1.791,1.318-4,1.318S7.293,5.748,7.293,5.023Zm0-2.882V1.318C7.293.592,9.084,0,11.292,0s4,.592,4,1.318v.824c0,.725-1.791,1.318-4,1.318S7.293,2.867,7.293,2.141Z" transform="translate(0.002)" fill="#fff"/></svg>