<svg width="16" height="16" viewBox="0 0 16 16" fill="none" xmlns="http://www.w3.org/2000/svg">
    <path d="M7.99992 1.1665C9.15525 1.1665 10.0994 2.0708 10.1632 3.21022L10.1666 3.33317H13.6666C13.9427 3.33317 14.1666 3.55703 14.1666 3.83317C14.1666 4.0863 13.9785 4.2955 13.7345 4.3286L13.6666 4.33317H13.1359L12.2825 13.0126C12.1941 13.912 11.4655 14.6065 10.575 14.6628L10.458 14.6665H5.54187C4.63815 14.6665 3.87569 14.0095 3.73247 13.1288L3.71735 13.0126L2.86325 4.33317H2.33325C2.08012 4.33317 1.87093 4.14507 1.83782 3.90102L1.83325 3.83317C1.83325 3.58004 2.02135 3.37084 2.26541 3.33774L2.33325 3.33317H5.83325C5.83325 2.13655 6.80332 1.1665 7.99992 1.1665ZM12.1313 4.33317H3.86792L4.71254 12.9148C4.75171 13.3129 5.06681 13.6227 5.45715 13.6622L5.54187 13.6665H10.458C10.8581 13.6665 11.1972 13.3832 11.2748 12.9986L11.2873 12.9148L12.1313 4.33317ZM9.16658 6.1665C9.41972 6.1665 9.62892 6.3546 9.66205 6.59866L9.66658 6.6665V11.3332C9.66658 11.6093 9.44272 11.8332 9.16658 11.8332C8.91345 11.8332 8.70425 11.645 8.67112 11.401L8.66658 11.3332V6.6665C8.66658 6.39036 8.89045 6.1665 9.16658 6.1665ZM6.83325 6.1665C7.08638 6.1665 7.29559 6.3546 7.32872 6.59866L7.33325 6.6665V11.3332C7.33325 11.6093 7.10939 11.8332 6.83325 11.8332C6.58012 11.8332 6.37092 11.645 6.33782 11.401L6.33325 11.3332V6.6665C6.33325 6.39036 6.55711 6.1665 6.83325 6.1665ZM7.99992 2.1665C7.38778 2.1665 6.88579 2.63791 6.83712 3.23748L6.83325 3.33317H9.16658C9.16658 2.68884 8.64425 2.1665 7.99992 2.1665Z" fill="white" />
</svg>