<svg xmlns="http://www.w3.org/2000/svg" width="20" height="26.002" viewBox="0 0 20 26.002"><g transform="translate(-728.66 -206.852)"><g transform="translate(731.015 224.017)" style="isolation:isolate"><g style="isolation:isolate"><path d="M733.72,230.175a2.538,2.538,0,0,1-2-.794,3.267,3.267,0,0,1-.708-2.248,3.364,3.364,0,0,1,.719-2.3,2.584,2.584,0,0,1,2.046-.812,4.056,4.056,0,0,1,.857.092,2.81,2.81,0,0,1,.672.217l-.277.764a4.234,4.234,0,0,0-.65-.2,2.914,2.914,0,0,0-.625-.079q-1.809,0-1.811,2.31a2.749,2.749,0,0,0,.443,1.679,1.535,1.535,0,0,0,1.309.585,4.01,4.01,0,0,0,1.523-.32v.8A3.236,3.236,0,0,1,733.72,230.175Z" transform="translate(-731.015 -224.017)" fill="#f5fafb"/><path d="M740.416,228.446a1.492,1.492,0,0,1-.618,1.28,2.91,2.91,0,0,1-1.735.449,3.758,3.758,0,0,1-1.843-.374v-.834a4.488,4.488,0,0,0,.919.341,3.854,3.854,0,0,0,.946.124,2.147,2.147,0,0,0,1.085-.225.773.773,0,0,0,.078-1.279,4.714,4.714,0,0,0-1.173-.583,6.319,6.319,0,0,1-1.18-.539,1.614,1.614,0,0,1-.521-.523,1.376,1.376,0,0,1-.171-.7,1.331,1.331,0,0,1,.591-1.147,2.75,2.75,0,0,1,1.621-.42,4.756,4.756,0,0,1,1.875.39l-.319.732a4.314,4.314,0,0,0-1.622-.368,1.861,1.861,0,0,0-.965.2.62.62,0,0,0-.325.553.673.673,0,0,0,.122.407,1.206,1.206,0,0,0,.393.319,8.631,8.631,0,0,0,1.042.44,3.881,3.881,0,0,1,1.428.775A1.366,1.366,0,0,1,740.416,228.446Z" transform="translate(-730.967 -224.017)" fill="#f5fafb"/><path d="M743.137,230.066l-2.255-5.942h.965l1.279,3.523a16.534,16.534,0,0,1,.51,1.6h.043a12.152,12.152,0,0,1,.376-1.19q.318-.9,1.424-3.938h.965l-2.256,5.942Z" transform="translate(-730.923 -224.016)" fill="#f5fafb"/></g></g></g><g transform="translate(-728.395 -207.009)"><path d="M730.4,233.011a2,2,0,0,1-2-2v-13a2,2,0,0,1,2-2h3.556v1.133h-3.445a1,1,0,0,0-1,1v12.733a1,1,0,0,0,1,1h15.778a1,1,0,0,0,1-1v-9.2h-5.556v-5.666h1.111v4.533h4.445v-2.4a1,1,0,0,0-1-1H742.84v-1.133H746.4a2,2,0,0,1,2,2v13a2,2,0,0,1-2,2Zm-.888-11.334v-1.133h4.444v-4.533h1.11v5.666Z" fill="#fff"/><path d="M743.222,211.987l-4.978-4.978-4.978,4.978,1.985,1.988,1.638-1.588v9.6h2.933v-9.6l1.414,1.588" fill="#fff"/></g></svg>