<svg width="25" height="25" viewBox="0 0 25 25" fill="none" xmlns="http://www.w3.org/2000/svg">
<path fill-rule="evenodd" clip-rule="evenodd" d="M23 12.5C23 18.299 18.299 23 12.5 23C6.70101 23 2 18.299 2 12.5C2 6.70101 6.70101 2 12.5 2C18.299 2 23 6.70101 23 12.5ZM25 12.5C25 19.4036 19.4036 25 12.5 25C5.59644 25 0 19.4036 0 12.5C0 5.59644 5.59644 0 12.5 0C19.4036 0 25 5.59644 25 12.5ZM7.56522 14.1304C8.42966 14.1304 9.13043 13.4297 9.13043 12.5652C9.13043 11.7008 8.42966 11 7.56522 11C6.70078 11 6 11.7008 6 12.5652C6 13.4297 6.70078 14.1304 7.56522 14.1304ZM12.5739 14.1304C13.4384 14.1304 14.1391 13.4297 14.1391 12.5652C14.1391 11.7008 13.4384 11 12.5739 11C11.7095 11 11.0087 11.7008 11.0087 12.5652C11.0087 13.4297 11.7095 14.1304 12.5739 14.1304ZM19.1478 12.5652C19.1478 13.4297 18.4471 14.1304 17.5826 14.1304C16.7181 14.1304 16.0174 13.4297 16.0174 12.5652C16.0174 11.7008 16.7181 11 17.5826 11C18.4471 11 19.1478 11.7008 19.1478 12.5652Z" fill="white"/>
</svg>
