<svg xmlns="http://www.w3.org/2000/svg" width="24" height="25" viewBox="0 0 24 25" fill="none">
  <path d="M12 2C9.9233 2 7.89323 2.61581 6.16652 3.76957C4.4398 4.92332 3.09399 6.5632 2.29927 8.48182C1.50455 10.4004 1.29661 12.5116 1.70176 14.5484C2.1069 16.5852 3.10693 18.4562 4.57538 19.9246C6.04383 21.3931 7.91476 22.3931 9.95156 22.7982C11.9884 23.2034 14.0996 22.9955 16.0182 22.2007C17.9368 21.406 19.5767 20.0602 20.7304 18.3335C21.8842 16.6068 22.5 14.5767 22.5 12.5C22.5 9.71523 21.3938 7.04451 19.4246 5.07538C17.4555 3.10625 14.7848 2 12 2ZM12 21.5C10.22 21.5 8.47992 20.9722 6.99987 19.9832C5.51983 18.9943 4.36628 17.5887 3.68509 15.9442C3.0039 14.2996 2.82567 12.49 3.17294 10.7442C3.5202 8.99836 4.37737 7.39471 5.63604 6.13604C6.89472 4.87737 8.49836 4.0202 10.2442 3.67293C11.99 3.32567 13.7996 3.5039 15.4442 4.18508C17.0887 4.86627 18.4943 6.01983 19.4832 7.49987C20.4722 8.97991 21 10.72 21 12.5C21 14.8869 20.0518 17.1761 18.364 18.864C16.6761 20.5518 14.387 21.5 12 21.5Z" fill="#C1E2FF"/>
  <path d="M12 19.25C12.6213 19.25 13.125 18.7463 13.125 18.125C13.125 17.5037 12.6213 17 12 17C11.3787 17 10.875 17.5037 10.875 18.125C10.875 18.7463 11.3787 19.25 12 19.25Z" fill="#C1E2FF"/>
  <path d="M12.75 6.5H11.625C11.1815 6.49901 10.7422 6.58563 10.3323 6.75489C9.92236 6.92415 9.54991 7.17272 9.23631 7.48631C8.92272 7.7999 8.67416 8.17235 8.5049 8.58227C8.33564 8.9922 8.24902 9.43151 8.25 9.875V10.25H9.75V9.875C9.75 9.37772 9.94755 8.90081 10.2992 8.54917C10.6508 8.19754 11.1277 8 11.625 8H12.75C13.2473 8 13.7242 8.19754 14.0758 8.54917C14.4275 8.90081 14.625 9.37772 14.625 9.875C14.625 10.3723 14.4275 10.8492 14.0758 11.2008C13.7242 11.5525 13.2473 11.75 12.75 11.75H11.25V15.125H12.75V13.25C13.6451 13.25 14.5036 12.8944 15.1365 12.2615C15.7694 11.6285 16.125 10.7701 16.125 9.875C16.125 8.97989 15.7694 8.12145 15.1365 7.48851C14.5036 6.85558 13.6451 6.5 12.75 6.5Z" fill="#C1E2FF"/>
</svg>