<svg width="13" height="12" viewBox="0 0 13 12" fill="none" xmlns="http://www.w3.org/2000/svg">
    <path d="M5.81826 0.238851C6.46814 -0.121092 7.27939 0.0880576 7.67801 0.701501L7.72976 0.787645L12.5791 9.54281C12.6946 9.75131 12.7552 9.98581 12.7552 10.2242C12.7552 10.9684 12.177 11.5777 11.4453 11.6272L11.3489 11.6304H1.65162C1.41331 11.6304 1.1789 11.5699 0.970405 11.4544C0.320505 11.0946 0.0673555 10.2959 0.37583 9.6325L0.421393 9.54294L5.26939 0.787789C5.3972 0.556939 5.58745 0.366714 5.81826 0.238851ZM11.759 9.99706L6.9097 1.24189C6.78426 1.01542 6.49895 0.93352 6.27251 1.05896C6.21482 1.09092 6.1647 1.13458 6.12526 1.18688L6.08957 1.24194L1.24155 9.99713C1.11614 10.2236 1.19807 10.5088 1.42456 10.6343C1.47667 10.6631 1.53366 10.6817 1.59241 10.6892L1.65162 10.6929H11.3489C11.6078 10.6929 11.8177 10.4831 11.8177 10.2242C11.8177 10.1646 11.8064 10.1057 11.7844 10.0507L11.759 9.99706L6.9097 1.24189L11.759 9.99706ZM6.5002 8.50113C6.84489 8.50113 7.12432 8.78056 7.12432 9.12525C7.12432 9.47 6.84489 9.74944 6.5002 9.74944C6.15545 9.74944 5.87601 9.47 5.87601 9.12525C5.87601 8.78056 6.15545 8.50113 6.5002 8.50113ZM6.49757 3.81222C6.73482 3.81203 6.93114 3.98822 6.96232 4.21699L6.9667 4.2806L6.96895 7.09406C6.96914 7.353 6.75945 7.563 6.50057 7.56319C6.26326 7.56338 6.06695 7.38719 6.03576 7.15844L6.03145 7.09481L6.0292 4.28135C6.02895 4.02246 6.23864 3.81243 6.49757 3.81222Z" fill="#F2C94C" />
</svg>